<svg width="1600" height="900" viewBox="0 0 1600 900" fill="none" xmlns="http://www.w3.org/2000/svg">
<g clip-path="url(#clip0_88_2)">
<rect width="1600" height="900" fill="#B6B3C4"/>
<path d="M809.928 402.4C812.408 402.88 814.248 403.72 815.448 404.92C816.728 406.12 817.368 407.52 817.368 409.12C817.368 411.76 816.608 413.68 815.088 414.88C813.648 416.08 811.328 416.56 808.128 416.32C800.928 415.76 795.288 415.4 791.208 415.24C787.208 415 781.928 414.84 775.368 414.76C772.408 429.48 769.688 444.28 767.208 459.16C766.328 464.6 765.408 470.92 764.448 478.12C763.488 485.24 762.848 491 762.528 495.4C762.368 497.72 761.408 499.52 759.648 500.8C757.888 502 755.768 502.6 753.288 502.6C750.648 502.6 748.608 501.96 747.168 500.68C745.728 499.4 745.008 497.72 745.008 495.64C745.008 493.72 745.288 490.56 745.848 486.16C746.488 481.68 747.208 477 748.008 472.12C748.888 467.24 749.568 463 750.048 459.4C750.928 453.32 751.928 447.28 753.048 441.28C754.168 435.28 755.288 429.6 756.408 424.24C756.648 423.04 756.928 421.68 757.248 420.16C757.568 418.56 757.928 416.8 758.328 414.88C750.488 415.12 744.328 415.76 739.848 416.8C735.368 417.84 732.168 419.32 730.248 421.24C728.408 423.08 727.488 425.48 727.488 428.44C727.488 431.16 728.288 433.76 729.888 436.24C730.208 436.8 730.368 437.4 730.368 438.04C730.368 439.56 729.448 441 727.608 442.36C725.848 443.64 724.008 444.28 722.088 444.28C720.728 444.28 719.608 443.88 718.728 443.08C717.128 441.72 715.808 439.8 714.768 437.32C713.728 434.76 713.208 431.88 713.208 428.68C713.208 421.88 715.408 416.44 719.808 412.36C724.288 408.2 731.048 405.16 740.088 403.24C749.208 401.32 760.888 400.36 775.128 400.36C783.928 400.36 790.928 400.52 796.128 400.84C801.408 401.16 806.008 401.68 809.928 402.4ZM841.178 475.24C842.218 475.24 843.018 475.72 843.578 476.68C844.218 477.64 844.538 478.96 844.538 480.64C844.538 483.84 843.778 486.32 842.258 488.08C839.298 491.68 835.098 495 829.658 498.04C824.298 501.08 818.538 502.6 812.378 502.6C803.978 502.6 797.458 500.32 792.818 495.76C788.178 491.2 785.858 484.96 785.858 477.04C785.858 471.52 787.018 466.4 789.338 461.68C791.658 456.88 794.858 453.08 798.938 450.28C803.098 447.48 807.778 446.08 812.978 446.08C817.618 446.08 821.338 447.48 824.138 450.28C826.938 453 828.338 456.72 828.338 461.44C828.338 466.96 826.338 471.72 822.338 475.72C818.418 479.64 811.738 482.76 802.298 485.08C804.298 488.76 808.098 490.6 813.698 490.6C817.298 490.6 821.378 489.36 825.938 486.88C830.578 484.32 834.578 481 837.938 476.92C838.898 475.8 839.978 475.24 841.178 475.24ZM810.938 457.84C807.978 457.84 805.458 459.56 803.378 463C801.378 466.44 800.378 470.6 800.378 475.48V475.72C805.098 474.6 808.818 472.92 811.538 470.68C814.258 468.44 815.618 465.84 815.618 462.88C815.618 461.36 815.178 460.16 814.298 459.28C813.498 458.32 812.378 457.84 810.938 457.84ZM880.248 475.24C881.288 475.24 882.088 475.72 882.648 476.68C883.288 477.64 883.608 478.96 883.608 480.64C883.608 483.84 882.848 486.32 881.328 488.08C877.888 492.32 874.128 495.8 870.048 498.52C866.048 501.24 861.488 502.6 856.368 502.6C849.328 502.6 844.088 499.4 840.648 493C837.288 486.6 835.608 478.32 835.608 468.16C835.608 458.4 836.848 447.28 839.328 434.8C841.888 422.32 845.608 411.6 850.488 402.64C855.448 393.68 861.328 389.2 868.128 389.2C871.968 389.2 874.968 391 877.128 394.6C879.368 398.12 880.488 403.2 880.488 409.84C880.488 419.36 877.848 430.4 872.568 442.96C867.288 455.52 860.128 467.96 851.088 480.28C851.648 483.56 852.568 485.92 853.848 487.36C855.128 488.72 856.808 489.4 858.888 489.4C862.168 489.4 865.048 488.48 867.528 486.64C870.008 484.72 873.168 481.48 877.008 476.92C877.968 475.8 879.048 475.24 880.248 475.24ZM865.488 401.08C863.648 401.08 861.568 404.4 859.248 411.04C856.928 417.68 854.888 425.92 853.128 435.76C851.368 445.6 850.408 455.04 850.248 464.08C855.928 454.72 860.448 445.36 863.808 436C867.168 426.56 868.848 417.96 868.848 410.2C868.848 404.12 867.728 401.08 865.488 401.08ZM927.428 475.24C928.468 475.24 929.268 475.72 929.828 476.68C930.468 477.64 930.788 478.96 930.788 480.64C930.788 483.84 930.028 486.32 928.508 488.08C925.548 491.68 921.348 495 915.908 498.04C910.548 501.08 904.788 502.6 898.628 502.6C890.228 502.6 883.708 500.32 879.068 495.76C874.428 491.2 872.108 484.96 872.108 477.04C872.108 471.52 873.268 466.4 875.588 461.68C877.908 456.88 881.108 453.08 885.188 450.28C889.348 447.48 894.028 446.08 899.228 446.08C903.868 446.08 907.588 447.48 910.388 450.28C913.188 453 914.588 456.72 914.588 461.44C914.588 466.96 912.588 471.72 908.588 475.72C904.668 479.64 897.988 482.76 888.548 485.08C890.548 488.76 894.348 490.6 899.948 490.6C903.548 490.6 907.628 489.36 912.188 486.88C916.828 484.32 920.828 481 924.188 476.92C925.148 475.8 926.228 475.24 927.428 475.24ZM897.188 457.84C894.228 457.84 891.708 459.56 889.628 463C887.628 466.44 886.628 470.6 886.628 475.48V475.72C891.348 474.6 895.068 472.92 897.788 470.68C900.508 468.44 901.868 465.84 901.868 462.88C901.868 461.36 901.428 460.16 900.548 459.28C899.748 458.32 898.628 457.84 897.188 457.84ZM981.872 475.48C982.912 475.48 983.712 476 984.272 477.04C984.912 478 985.232 479.24 985.232 480.76C985.232 482.6 984.952 484.04 984.392 485.08C983.832 486.12 982.952 487.04 981.752 487.84C974.872 492.48 969.832 495.92 966.632 498.16L958.952 503.32C955.912 519.88 951.912 532.88 946.952 542.32C942.072 551.84 935.832 556.6 928.232 556.6C924.152 556.6 920.832 555.32 918.272 552.76C915.712 550.28 914.432 547 914.432 542.92C914.432 537.24 916.672 531.12 921.152 524.56C925.632 518.08 934.032 510.08 946.352 500.56L947.072 495.88C945.712 498.04 943.912 499.72 941.672 500.92C939.512 502.04 937.352 502.6 935.192 502.6C930.232 502.6 926.272 500.8 923.312 497.2C920.352 493.6 918.872 488.88 918.872 483.04C918.872 476.64 920.352 470.6 923.312 464.92C926.272 459.16 930.192 454.56 935.072 451.12C940.032 447.6 945.272 445.84 950.792 445.84C952.552 445.84 953.712 446.2 954.272 446.92C954.912 447.56 955.432 448.76 955.832 450.52C957.352 450.2 959.112 450.04 961.112 450.04C963.112 450.04 964.512 450.36 965.312 451C966.192 451.56 966.632 452.72 966.632 454.48C966.632 455.44 966.592 456.2 966.512 456.76C966.192 459.24 965.192 465.52 963.512 475.6C963.192 477.52 962.832 479.64 962.432 481.96C962.112 484.2 961.752 486.6 961.352 489.16C967.512 484.36 973.432 480.12 979.112 476.44C980.152 475.8 981.072 475.48 981.872 475.48ZM939.512 490.48C941.352 490.48 943.112 489.36 944.792 487.12C946.472 484.88 947.672 481.68 948.392 477.52L952.232 457C948.952 457.08 945.912 458.36 943.112 460.84C940.312 463.24 938.072 466.44 936.392 470.44C934.712 474.44 933.872 478.68 933.872 483.16C933.872 485.64 934.352 487.48 935.312 488.68C936.352 489.88 937.752 490.48 939.512 490.48ZM929.552 544.96C931.552 544.96 933.792 542.56 936.272 537.76C938.832 532.96 941.272 525.32 943.592 514.84C937.432 520.12 932.992 524.88 930.272 529.12C927.552 533.36 926.192 537.08 926.192 540.28C926.192 541.64 926.432 542.76 926.912 543.64C927.472 544.52 928.352 544.96 929.552 544.96ZM985.085 502.6C982.045 502.6 979.885 501 978.605 497.8C977.405 494.6 976.805 489.48 976.805 482.44C976.805 472.04 978.285 462.16 981.245 452.8C981.965 450.48 983.125 448.8 984.725 447.76C986.405 446.64 988.725 446.08 991.685 446.08C993.285 446.08 994.405 446.28 995.045 446.68C995.685 447.08 996.005 447.84 996.005 448.96C996.005 450.24 995.405 453.12 994.205 457.6C993.405 460.8 992.765 463.6 992.285 466C991.805 468.4 991.405 471.36 991.085 474.88C993.725 468 996.685 462.4 999.965 458.08C1003.24 453.76 1006.44 450.68 1009.56 448.84C1012.76 447 1015.68 446.08 1018.32 446.08C1023.52 446.08 1026.12 448.68 1026.12 453.88C1026.12 454.92 1025.76 457.44 1025.04 461.44C1024.4 464.64 1024.08 466.64 1024.08 467.44C1024.08 470.24 1025.08 471.64 1027.08 471.64C1029.32 471.64 1032.2 469.88 1035.72 466.36C1036.76 465.32 1037.84 464.8 1038.96 464.8C1040 464.8 1040.8 465.28 1041.36 466.24C1042 467.12 1042.32 468.32 1042.32 469.84C1042.32 472.8 1041.52 475.12 1039.92 476.8C1037.68 479.12 1035.04 481.12 1032 482.8C1029.04 484.4 1025.88 485.2 1022.52 485.2C1018.28 485.2 1015.04 484.12 1012.8 481.96C1010.64 479.8 1009.56 476.88 1009.56 473.2C1009.56 472 1009.68 470.8 1009.92 469.6C1010.08 468 1010.16 466.92 1010.16 466.36C1010.16 465.08 1009.72 464.44 1008.84 464.44C1007.64 464.44 1006.04 465.8 1004.04 468.52C1002.12 471.16 1000.2 474.68 998.285 479.08C996.365 483.48 994.805 488.12 993.605 493C992.725 496.76 991.685 499.32 990.485 500.68C989.365 501.96 987.565 502.6 985.085 502.6ZM1045.93 502.6C1040.97 502.6 1037.01 500.8 1034.05 497.2C1031.09 493.6 1029.61 488.88 1029.61 483.04C1029.61 476.64 1031.09 470.6 1034.05 464.92C1037.01 459.16 1040.93 454.56 1045.81 451.12C1050.77 447.6 1056.01 445.84 1061.53 445.84C1063.29 445.84 1064.45 446.2 1065.01 446.92C1065.65 447.56 1066.17 448.76 1066.57 450.52C1068.25 450.2 1070.01 450.04 1071.85 450.04C1075.77 450.04 1077.73 451.44 1077.73 454.24C1077.73 455.92 1077.13 459.92 1075.93 466.24C1074.09 475.44 1073.17 481.84 1073.17 485.44C1073.17 486.64 1073.45 487.6 1074.01 488.32C1074.65 489.04 1075.45 489.4 1076.41 489.4C1077.93 489.4 1079.77 488.44 1081.93 486.52C1084.09 484.52 1087.01 481.32 1090.69 476.92C1091.65 475.8 1092.73 475.24 1093.93 475.24C1094.97 475.24 1095.77 475.72 1096.33 476.68C1096.97 477.64 1097.29 478.96 1097.29 480.64C1097.29 483.84 1096.53 486.32 1095.01 488.08C1091.73 492.16 1088.25 495.6 1084.57 498.4C1080.89 501.2 1077.33 502.6 1073.89 502.6C1071.25 502.6 1068.81 501.72 1066.57 499.96C1064.41 498.12 1062.77 495.64 1061.65 492.52C1057.49 499.24 1052.25 502.6 1045.93 502.6ZM1050.25 490.48C1052.01 490.48 1053.69 489.44 1055.29 487.36C1056.89 485.28 1058.05 482.52 1058.77 479.08L1063.21 457C1059.85 457.08 1056.73 458.36 1053.85 460.84C1051.05 463.24 1048.81 466.44 1047.13 470.44C1045.45 474.44 1044.61 478.68 1044.61 483.16C1044.61 485.64 1045.09 487.48 1046.05 488.68C1047.09 489.88 1048.49 490.48 1050.25 490.48ZM1096.06 502.6C1093.02 502.6 1090.86 501 1089.58 497.8C1088.38 494.6 1087.78 489.48 1087.78 482.44C1087.78 472.04 1089.26 462.16 1092.22 452.8C1092.94 450.48 1094.1 448.8 1095.7 447.76C1097.38 446.64 1099.7 446.08 1102.66 446.08C1104.26 446.08 1105.38 446.28 1106.02 446.68C1106.66 447.08 1106.98 447.84 1106.98 448.96C1106.98 450.24 1106.38 453.12 1105.18 457.6C1104.38 460.8 1103.74 463.6 1103.26 466C1102.78 468.32 1102.38 471.24 1102.06 474.76C1104.22 468.52 1106.78 463.24 1109.74 458.92C1112.78 454.6 1115.86 451.4 1118.98 449.32C1122.18 447.16 1125.18 446.08 1127.98 446.08C1130.78 446.08 1132.74 446.72 1133.86 448C1135.06 449.28 1135.66 451.24 1135.66 453.88C1135.66 456.44 1134.9 461.08 1133.38 467.8C1132.74 470.68 1132.3 472.84 1132.06 474.28C1134.7 467.56 1137.62 462.08 1140.82 457.84C1144.1 453.6 1147.3 450.6 1150.42 448.84C1153.54 447 1156.42 446.08 1159.06 446.08C1161.62 446.08 1163.54 446.76 1164.82 448.12C1166.18 449.4 1166.86 451.32 1166.86 453.88C1166.86 455.96 1166.42 459.88 1165.54 465.64C1164.74 470.52 1164.1 475.16 1163.62 479.56C1163.14 483.88 1162.9 488.72 1162.9 494.08C1162.9 497.12 1162.26 499.32 1160.98 500.68C1159.78 501.96 1157.78 502.6 1154.98 502.6C1152.34 502.6 1150.42 501.92 1149.22 500.56C1148.02 499.2 1147.42 497.16 1147.42 494.44C1147.42 491.24 1147.98 485.96 1149.1 478.6C1150.06 472.2 1150.54 468.12 1150.54 466.36C1150.54 465.08 1150.1 464.44 1149.22 464.44C1148.18 464.44 1146.7 465.8 1144.78 468.52C1142.86 471.16 1140.94 474.68 1139.02 479.08C1137.1 483.48 1135.54 488.12 1134.34 493C1133.46 496.84 1132.42 499.4 1131.22 500.68C1130.1 501.96 1128.26 502.6 1125.7 502.6C1123.06 502.6 1121.06 501.36 1119.7 498.88C1118.42 496.32 1117.78 493.24 1117.78 489.64C1117.78 486.6 1118.18 482.2 1118.98 476.44C1119.62 471.32 1119.94 467.96 1119.94 466.36C1119.94 465.08 1119.5 464.44 1118.62 464.44C1117.42 464.44 1115.9 465.88 1114.06 468.76C1112.22 471.64 1110.42 475.32 1108.66 479.8C1106.98 484.28 1105.62 488.68 1104.58 493C1103.7 496.76 1102.66 499.32 1101.46 500.68C1100.34 501.96 1098.54 502.6 1096.06 502.6ZM1305.59 425.2C1305.59 432 1303.19 437.88 1298.39 442.84C1293.59 447.72 1286.59 451.24 1277.39 453.4C1282.35 454.76 1286.11 457 1288.67 460.12C1291.23 463.16 1292.51 466.68 1292.51 470.68C1292.51 477 1290.51 482.48 1286.51 487.12C1282.59 491.76 1276.83 495.36 1269.23 497.92C1261.63 500.4 1252.47 501.64 1241.75 501.64C1237.75 501.64 1234.55 501.52 1232.15 501.28C1232.07 503.52 1231.11 505.2 1229.27 506.32C1227.43 507.44 1225.07 508 1222.19 508C1219.31 508 1217.31 507.36 1216.19 506.08C1215.15 504.8 1214.71 502.92 1214.87 500.44C1215.59 489.24 1216.99 477.52 1219.07 465.28C1221.15 452.96 1223.79 441.08 1226.99 429.64C1227.55 427.64 1228.67 426.24 1230.35 425.44C1232.03 424.64 1234.23 424.24 1236.95 424.24C1241.83 424.24 1244.27 425.6 1244.27 428.32C1244.27 429.44 1244.03 430.72 1243.55 432.16C1241.47 438.4 1239.39 446.88 1237.31 457.6C1235.23 468.24 1233.75 478.4 1232.87 488.08C1236.71 488.4 1239.83 488.56 1242.23 488.56C1253.43 488.56 1261.63 486.96 1266.83 483.76C1272.11 480.48 1274.75 476.32 1274.75 471.28C1274.75 467.76 1273.23 464.8 1270.19 462.4C1267.23 460 1262.23 458.68 1255.19 458.44C1253.59 458.36 1252.47 457.96 1251.83 457.24C1251.19 456.52 1250.87 455.36 1250.87 453.76C1250.87 451.44 1251.35 449.56 1252.31 448.12C1253.27 446.68 1255.03 445.92 1257.59 445.84C1263.27 445.68 1268.39 444.84 1272.95 443.32C1277.59 441.8 1281.23 439.68 1283.87 436.96C1286.51 434.16 1287.83 430.92 1287.83 427.24C1287.83 422.6 1285.55 418.96 1280.99 416.32C1276.43 413.6 1269.43 412.24 1259.99 412.24C1251.43 412.24 1243.15 413.36 1235.15 415.6C1227.15 417.76 1220.35 420.52 1214.75 423.88C1212.19 425.4 1210.03 426.16 1208.27 426.16C1206.83 426.16 1205.71 425.68 1204.91 424.72C1204.19 423.68 1203.83 422.4 1203.83 420.88C1203.83 418.88 1204.23 417.16 1205.03 415.72C1205.91 414.28 1207.95 412.64 1211.15 410.8C1217.87 406.96 1225.75 403.96 1234.79 401.8C1243.83 399.64 1253.07 398.56 1262.51 398.56C1276.99 398.56 1287.79 401 1294.91 405.88C1302.03 410.76 1305.59 417.2 1305.59 425.2ZM1363.43 465.16C1364.47 465.16 1365.27 465.68 1365.83 466.72C1366.39 467.76 1366.67 469.08 1366.67 470.68C1366.67 474.52 1365.51 476.8 1363.19 477.52C1358.39 479.2 1353.11 480.16 1347.35 480.4C1345.83 487.12 1342.83 492.52 1338.35 496.6C1333.87 500.6 1328.79 502.6 1323.11 502.6C1318.31 502.6 1314.19 501.44 1310.75 499.12C1307.39 496.8 1304.83 493.72 1303.07 489.88C1301.31 486.04 1300.43 481.88 1300.43 477.4C1300.43 471.32 1301.59 465.92 1303.91 461.2C1306.23 456.4 1309.43 452.68 1313.51 450.04C1317.59 447.32 1322.11 445.96 1327.07 445.96C1333.15 445.96 1338.03 448.08 1341.71 452.32C1345.47 456.48 1347.67 461.64 1348.31 467.8C1352.07 467.56 1356.55 466.76 1361.75 465.4C1362.39 465.24 1362.95 465.16 1363.43 465.16ZM1324.07 489.88C1326.63 489.88 1328.83 488.84 1330.67 486.76C1332.59 484.68 1333.87 481.68 1334.51 477.76C1332.03 476.08 1330.11 473.88 1328.75 471.16C1327.47 468.44 1326.83 465.56 1326.83 462.52C1326.83 461.24 1326.95 459.96 1327.19 458.68H1326.59C1323.39 458.68 1320.71 460.24 1318.55 463.36C1316.47 466.4 1315.43 470.72 1315.43 476.32C1315.43 480.72 1316.27 484.08 1317.95 486.4C1319.71 488.72 1321.75 489.88 1324.07 489.88ZM1412.94 475.24C1413.98 475.24 1414.78 475.72 1415.34 476.68C1415.98 477.64 1416.3 478.96 1416.3 480.64C1416.3 483.84 1415.54 486.32 1414.02 488.08C1410.58 492.32 1406.82 495.8 1402.74 498.52C1398.66 501.24 1393.98 502.6 1388.7 502.6C1372.38 502.6 1364.22 491.12 1364.22 468.16C1364.22 464.64 1364.34 461.08 1364.58 457.48H1359.9C1357.5 457.48 1355.86 457.04 1354.98 456.16C1354.18 455.28 1353.78 453.88 1353.78 451.96C1353.78 447.48 1355.58 445.24 1359.18 445.24H1366.02C1367.38 436.44 1369.46 428.4 1372.26 421.12C1375.06 413.84 1378.42 408.04 1382.34 403.72C1386.34 399.4 1390.62 397.24 1395.18 397.24C1398.54 397.24 1401.18 398.72 1403.1 401.68C1405.02 404.64 1405.98 408.36 1405.98 412.84C1405.98 425.24 1400.78 436.04 1390.38 445.24H1403.82C1405.1 445.24 1406.02 445.52 1406.58 446.08C1407.14 446.64 1407.42 447.68 1407.42 449.2C1407.42 454.72 1402.9 457.48 1393.86 457.48H1379.22C1379.06 461.48 1378.98 464.6 1378.98 466.84C1378.98 475.16 1379.94 481 1381.86 484.36C1383.86 487.72 1386.98 489.4 1391.22 489.4C1394.66 489.4 1397.7 488.36 1400.34 486.28C1402.98 484.2 1406.1 481.08 1409.7 476.92C1410.66 475.8 1411.74 475.24 1412.94 475.24ZM1391.94 408.76C1390.74 408.76 1389.38 410.28 1387.86 413.32C1386.42 416.28 1385.02 420.44 1383.66 425.8C1382.38 431.08 1381.3 436.96 1380.42 443.44C1385.14 439.36 1388.66 434.8 1390.98 429.76C1393.38 424.64 1394.58 420 1394.58 415.84C1394.58 411.12 1393.7 408.76 1391.94 408.76ZM1428.85 505.24C1424.69 505.24 1421.49 504.28 1419.25 502.36C1417.09 500.44 1416.01 498.28 1416.01 495.88C1416.01 493.8 1416.77 492 1418.29 490.48C1419.81 488.96 1422.05 488.2 1425.01 488.2C1426.05 488.2 1427.25 488.32 1428.61 488.56C1430.05 488.72 1431.13 488.84 1431.85 488.92C1431.77 486.84 1431.29 484.88 1430.41 483.04C1429.61 481.2 1428.57 479.44 1427.29 477.76C1426.01 476 1424.81 474.48 1423.69 473.2C1421.21 477.92 1418.73 481.84 1416.25 484.96C1413.85 488.08 1411.21 491.04 1408.33 493.84C1406.89 495.28 1405.37 496 1403.77 496C1402.49 496 1401.45 495.56 1400.65 494.68C1399.85 493.72 1399.45 492.56 1399.45 491.2C1399.45 489.6 1400.01 488.12 1401.13 486.76L1402.69 484.84C1407.09 479.4 1410.41 474.92 1412.65 471.4C1414.09 469.08 1415.53 466.32 1416.97 463.12C1418.49 459.92 1420.45 455.56 1422.85 450.04C1424.37 446.52 1427.53 444.76 1432.33 444.76C1434.57 444.76 1436.13 444.96 1437.01 445.36C1437.89 445.76 1438.33 446.4 1438.33 447.28C1438.33 447.76 1438.17 448.52 1437.85 449.56C1437.53 450.6 1437.09 451.64 1436.53 452.68C1435.09 455.56 1434.37 458 1434.37 460C1434.37 461.2 1434.77 462.52 1435.57 463.96C1436.45 465.4 1437.77 467.2 1439.53 469.36C1442.09 472.72 1444.01 475.6 1445.29 478C1446.65 480.32 1447.33 482.88 1447.33 485.68C1447.33 489.04 1446.53 492.24 1444.93 495.28C1443.41 498.24 1441.25 500.64 1438.45 502.48C1435.65 504.32 1432.45 505.24 1428.85 505.24Z" fill="#0B2545"/>
<g filter="url(#filter0_b_88_2)">
<rect x="509" y="90" width="343" height="321" rx="72" fill="url(#paint0_radial_88_2)"/>
<rect x="510.5" y="91.5" width="340" height="318" rx="70.5" stroke="url(#paint1_radial_88_2)" stroke-width="3"/>
</g>
<path d="M54.0605 417.922C54.0605 417.922 332.257 298.519 428.741 256.477C465.724 239.66 591.154 185.843 591.154 185.843C591.154 185.843 649.044 162.303 644.22 219.477C642.609 243.021 629.744 325.425 616.88 414.556C597.585 540.687 576.679 678.583 576.679 678.583C576.679 678.583 573.466 717.263 546.13 723.991C518.79 730.719 473.765 700.446 465.724 693.719C459.294 688.672 345.122 612.996 303.314 576.001C292.056 565.912 279.191 545.729 304.921 522.184C362.81 466.692 431.958 397.739 473.765 354.016C493.06 333.833 512.359 286.744 431.958 343.922C317.786 426.326 205.22 503.687 205.22 503.687C205.22 503.687 179.495 520.504 131.253 505.368C83.0115 490.232 26.7288 470.053 26.7288 470.053C26.7288 470.053 -11.8612 444.823 54.069 417.922H54.0605Z" stroke="#0B2545" stroke-width="30"/>
<g filter="url(#filter1_b_88_2)">
<circle cx="-44" cy="345" r="182" fill="url(#paint2_radial_88_2)"/>
<circle cx="-44" cy="345" r="180.5" stroke="url(#paint3_radial_88_2)" stroke-width="3"/>
</g>
<g filter="url(#filter2_b_88_2)">
<circle cx="709" cy="725" r="182" fill="url(#paint4_radial_88_2)"/>
<circle cx="709" cy="725" r="180.5" stroke="url(#paint5_radial_88_2)" stroke-width="3"/>
</g>
<g filter="url(#filter3_b_88_2)">
<circle cx="1569" cy="616" r="182" fill="url(#paint6_radial_88_2)"/>
<circle cx="1569" cy="616" r="180.5" stroke="url(#paint7_linear_88_2)" stroke-width="3"/>
</g>
<g filter="url(#filter4_b_88_2)">
<circle cx="1569" r="182" fill="url(#paint8_radial_88_2)"/>
<circle cx="1569" r="180.5" stroke="url(#paint9_linear_88_2)" stroke-width="3"/>
</g>
</g>
<defs>
<filter id="filter0_b_88_2" x="467" y="48" width="427" height="405" filterUnits="userSpaceOnUse" color-interpolation-filters="sRGB">
<feFlood flood-opacity="0" result="BackgroundImageFix"/>
<feGaussianBlur in="BackgroundImageFix" stdDeviation="21"/>
<feComposite in2="SourceAlpha" operator="in" result="effect1_backgroundBlur_88_2"/>
<feBlend mode="normal" in="SourceGraphic" in2="effect1_backgroundBlur_88_2" result="shape"/>
</filter>
<filter id="filter1_b_88_2" x="-268" y="121" width="448" height="448" filterUnits="userSpaceOnUse" color-interpolation-filters="sRGB">
<feFlood flood-opacity="0" result="BackgroundImageFix"/>
<feGaussianBlur in="BackgroundImageFix" stdDeviation="21"/>
<feComposite in2="SourceAlpha" operator="in" result="effect1_backgroundBlur_88_2"/>
<feBlend mode="normal" in="SourceGraphic" in2="effect1_backgroundBlur_88_2" result="shape"/>
</filter>
<filter id="filter2_b_88_2" x="485" y="501" width="448" height="448" filterUnits="userSpaceOnUse" color-interpolation-filters="sRGB">
<feFlood flood-opacity="0" result="BackgroundImageFix"/>
<feGaussianBlur in="BackgroundImageFix" stdDeviation="21"/>
<feComposite in2="SourceAlpha" operator="in" result="effect1_backgroundBlur_88_2"/>
<feBlend mode="normal" in="SourceGraphic" in2="effect1_backgroundBlur_88_2" result="shape"/>
</filter>
<filter id="filter3_b_88_2" x="1345" y="392" width="448" height="448" filterUnits="userSpaceOnUse" color-interpolation-filters="sRGB">
<feFlood flood-opacity="0" result="BackgroundImageFix"/>
<feGaussianBlur in="BackgroundImageFix" stdDeviation="21"/>
<feComposite in2="SourceAlpha" operator="in" result="effect1_backgroundBlur_88_2"/>
<feBlend mode="normal" in="SourceGraphic" in2="effect1_backgroundBlur_88_2" result="shape"/>
</filter>
<filter id="filter4_b_88_2" x="1345" y="-224" width="448" height="448" filterUnits="userSpaceOnUse" color-interpolation-filters="sRGB">
<feFlood flood-opacity="0" result="BackgroundImageFix"/>
<feGaussianBlur in="BackgroundImageFix" stdDeviation="21"/>
<feComposite in2="SourceAlpha" operator="in" result="effect1_backgroundBlur_88_2"/>
<feBlend mode="normal" in="SourceGraphic" in2="effect1_backgroundBlur_88_2" result="shape"/>
</filter>
<radialGradient id="paint0_radial_88_2" cx="0" cy="0" r="1" gradientUnits="userSpaceOnUse" gradientTransform="translate(512.085 99.5504) rotate(42.1795) scale(451.595 719.139)">
<stop stop-color="white" stop-opacity="0.4"/>
<stop offset="1" stop-color="white" stop-opacity="0"/>
</radialGradient>
<radialGradient id="paint1_radial_88_2" cx="0" cy="0" r="1" gradientUnits="userSpaceOnUse" gradientTransform="translate(512.085 99.5504) rotate(42.1795) scale(451.595 719.139)">
<stop stop-color="#D8D8D8" stop-opacity="0"/>
<stop offset="1" stop-color="#D8D8D8"/>
</radialGradient>
<radialGradient id="paint2_radial_88_2" cx="0" cy="0" r="1" gradientUnits="userSpaceOnUse" gradientTransform="translate(-222.726 173.83) rotate(44.0741) scale(494.322 790.597)">
<stop stop-color="white" stop-opacity="0.4"/>
<stop offset="1" stop-color="white" stop-opacity="0"/>
</radialGradient>
<radialGradient id="paint3_radial_88_2" cx="0" cy="0" r="1" gradientUnits="userSpaceOnUse" gradientTransform="translate(-222.726 173.83) rotate(44.0741) scale(494.322 790.597)">
<stop stop-color="#D8D8D8" stop-opacity="0"/>
<stop offset="1" stop-color="#D8D8D8"/>
</radialGradient>
<radialGradient id="paint4_radial_88_2" cx="0" cy="0" r="1" gradientUnits="userSpaceOnUse" gradientTransform="translate(530.274 553.83) rotate(44.0741) scale(494.322 790.597)">
<stop stop-color="white" stop-opacity="0.4"/>
<stop offset="1" stop-color="white" stop-opacity="0"/>
</radialGradient>
<radialGradient id="paint5_radial_88_2" cx="0" cy="0" r="1" gradientUnits="userSpaceOnUse" gradientTransform="translate(532.007 895.869) rotate(-44.0635) scale(491.821 785.769)">
<stop stop-color="#D8D8D8" stop-opacity="0"/>
<stop offset="1" stop-color="#D8D8D8"/>
</radialGradient>
<radialGradient id="paint6_radial_88_2" cx="0" cy="0" r="1" gradientUnits="userSpaceOnUse" gradientTransform="translate(1390.27 444.83) rotate(44.0741) scale(494.322 790.597)">
<stop stop-color="white" stop-opacity="0.4"/>
<stop offset="1" stop-color="white" stop-opacity="0"/>
</radialGradient>
<linearGradient id="paint7_linear_88_2" x1="1393.74" y1="443.927" x2="1814.97" y2="636.378" gradientUnits="userSpaceOnUse">
<stop stop-color="white" stop-opacity="0.9"/>
<stop offset="1" stop-color="white" stop-opacity="0"/>
</linearGradient>
<radialGradient id="paint8_radial_88_2" cx="0" cy="0" r="1" gradientUnits="userSpaceOnUse" gradientTransform="translate(1390.27 -171.17) rotate(44.0741) scale(494.322 790.597)">
<stop stop-color="white" stop-opacity="0.4"/>
<stop offset="1" stop-color="white" stop-opacity="0"/>
</radialGradient>
<linearGradient id="paint9_linear_88_2" x1="1393.74" y1="-172.073" x2="1814.97" y2="20.3776" gradientUnits="userSpaceOnUse">
<stop stop-color="white" stop-opacity="0.9"/>
<stop offset="1" stop-color="white" stop-opacity="0"/>
</linearGradient>
<clipPath id="clip0_88_2">
<rect width="1600" height="900" fill="white"/>
</clipPath>
</defs>
</svg>
